<svg width="237" height="63" viewBox="0 0 237 63" fill="none" xmlns="http://www.w3.org/2000/svg">
<g filter="url(#filter0_d_622_7)">
<circle cx="29" cy="30" r="25" fill="url(#paint0_linear_622_7)" shape-rendering="crispEdges"/>
</g>
<path d="M38.04 35.07C38.04 36.2367 37.7483 37.3333 37.165 38.36C36.605 39.3867 35.765 40.25 34.645 40.95C33.5483 41.65 32.2417 42.07 30.725 42.21V45.045H28.45V42.21C26.2567 42 24.4833 41.3117 23.13 40.145C21.7767 38.9783 21.1 37.4383 21.1 35.525H25.37C25.44 36.435 25.7317 37.1933 26.245 37.8C26.7583 38.3833 27.4933 38.7567 28.45 38.92V31.22C26.8867 30.8233 25.615 30.4267 24.635 30.03C23.655 29.61 22.815 28.9567 22.115 28.07C21.4383 27.1833 21.1 25.97 21.1 24.43C21.1 22.4933 21.7767 20.895 23.13 19.635C24.4833 18.3517 26.2567 17.605 28.45 17.395V14.56H30.725V17.395C32.7783 17.5817 34.4233 18.235 35.66 19.355C36.92 20.4517 37.6317 21.9683 37.795 23.905H33.525C33.455 23.1817 33.175 22.54 32.685 21.98C32.195 21.3967 31.5417 21 30.725 20.79V28.35C32.2883 28.7233 33.56 29.12 34.54 29.54C35.52 29.9367 36.3483 30.5783 37.025 31.465C37.7017 32.3283 38.04 33.53 38.04 35.07ZM25.16 24.22C25.16 25.1767 25.44 25.9233 26 26.46C26.5833 26.9967 27.4 27.4283 28.45 27.755V20.685C27.4467 20.8017 26.6417 21.1633 26.035 21.77C25.4517 22.3767 25.16 23.1933 25.16 24.22ZM30.725 38.92C31.7517 38.7567 32.5567 38.3483 33.14 37.695C33.7233 37.0183 34.015 36.2133 34.015 35.28C34.015 34.3467 33.7233 33.6233 33.14 33.11C32.58 32.5733 31.775 32.1417 30.725 31.815V38.92Z" fill="white"/>
<path d="M76.24 25.68H72.16V44H67.56V25.68H64.96V21.96H67.56V20.4C67.56 17.8667 68.2267 16.0267 69.56 14.88C70.92 13.7067 73.04 13.12 75.92 13.12V16.92C74.5333 16.92 73.56 17.1867 73 17.72C72.44 18.2267 72.16 19.12 72.16 20.4V21.96H76.24V25.68ZM82.6013 19.04C81.7746 19.04 81.0813 18.76 80.5213 18.2C79.9613 17.64 79.6813 16.9467 79.6813 16.12C79.6813 15.2933 79.9613 14.6 80.5213 14.04C81.0813 13.48 81.7746 13.2 82.6013 13.2C83.4013 13.2 84.0813 13.48 84.6413 14.04C85.2013 14.6 85.4813 15.2933 85.4813 16.12C85.4813 16.9467 85.2013 17.64 84.6413 18.2C84.0813 18.76 83.4013 19.04 82.6013 19.04ZM84.8413 21.96V44H80.2813V21.96H84.8413ZM101.948 21.6C103.681 21.6 105.228 21.96 106.588 22.68C107.975 23.4 109.055 24.4667 109.828 25.88C110.601 27.2933 110.988 29 110.988 31V44H106.468V31.68C106.468 29.7067 105.975 28.2 104.988 27.16C104.001 26.0933 102.655 25.56 100.948 25.56C99.2415 25.56 97.8815 26.0933 96.8681 27.16C95.8815 28.2 95.3881 29.7067 95.3881 31.68V44H90.8281V21.96H95.3881V24.48C96.1348 23.5733 97.0815 22.8667 98.2281 22.36C99.4015 21.8533 100.641 21.6 101.948 21.6ZM115.285 32.88C115.285 30.6667 115.738 28.7067 116.645 27C117.578 25.2933 118.831 23.9733 120.405 23.04C122.005 22.08 123.765 21.6 125.685 21.6C127.418 21.6 128.925 21.9467 130.205 22.64C131.511 23.3067 132.551 24.1467 133.325 25.16V21.96H137.925V44H133.325V40.72C132.551 41.76 131.498 42.6267 130.165 43.32C128.831 44.0133 127.311 44.36 125.605 44.36C123.711 44.36 121.978 43.88 120.405 42.92C118.831 41.9333 117.578 40.5733 116.645 38.84C115.738 37.08 115.285 35.0933 115.285 32.88ZM133.325 32.96C133.325 31.44 133.005 30.12 132.365 29C131.751 27.88 130.938 27.0267 129.925 26.44C128.911 25.8533 127.818 25.56 126.645 25.56C125.471 25.56 124.378 25.8533 123.365 26.44C122.351 27 121.525 27.84 120.885 28.96C120.271 30.0533 119.965 31.36 119.965 32.88C119.965 34.4 120.271 35.7333 120.885 36.88C121.525 38.0267 122.351 38.9067 123.365 39.52C124.405 40.1067 125.498 40.4 126.645 40.4C127.818 40.4 128.911 40.1067 129.925 39.52C130.938 38.9333 131.751 38.08 132.365 36.96C133.005 35.8133 133.325 34.48 133.325 32.96ZM155.034 21.6C156.767 21.6 158.314 21.96 159.674 22.68C161.061 23.4 162.141 24.4667 162.914 25.88C163.687 27.2933 164.074 29 164.074 31V44H159.554V31.68C159.554 29.7067 159.061 28.2 158.074 27.16C157.087 26.0933 155.741 25.56 154.034 25.56C152.327 25.56 150.967 26.0933 149.954 27.16C148.967 28.2 148.474 29.7067 148.474 31.68V44H143.914V21.96H148.474V24.48C149.221 23.5733 150.167 22.8667 151.314 22.36C152.487 21.8533 153.727 21.6 155.034 21.6ZM168.371 32.96C168.371 30.6933 168.824 28.7067 169.731 27C170.664 25.2667 171.944 23.9333 173.571 23C175.197 22.0667 177.064 21.6 179.171 21.6C181.837 21.6 184.037 22.24 185.771 23.52C187.531 24.7733 188.717 26.5733 189.331 28.92H184.411C184.011 27.8267 183.371 26.9733 182.491 26.36C181.611 25.7467 180.504 25.44 179.171 25.44C177.304 25.44 175.811 26.1067 174.691 27.44C173.597 28.7467 173.051 30.5867 173.051 32.96C173.051 35.3333 173.597 37.1867 174.691 38.52C175.811 39.8533 177.304 40.52 179.171 40.52C181.811 40.52 183.557 39.36 184.411 37.04H189.331C188.691 39.28 187.491 41.0667 185.731 42.4C183.971 43.7067 181.784 44.36 179.171 44.36C177.064 44.36 175.197 43.8933 173.571 42.96C171.944 42 170.664 40.6667 169.731 38.96C168.824 37.2267 168.371 35.2267 168.371 32.96ZM214.075 32.44C214.075 33.2667 214.022 34.0133 213.915 34.68H197.075C197.208 36.44 197.862 37.8533 199.035 38.92C200.208 39.9867 201.648 40.52 203.355 40.52C205.808 40.52 207.542 39.4933 208.555 37.44H213.475C212.808 39.4667 211.595 41.1333 209.835 42.44C208.102 43.72 205.942 44.36 203.355 44.36C201.248 44.36 199.355 43.8933 197.675 42.96C196.022 42 194.715 40.6667 193.755 38.96C192.822 37.2267 192.355 35.2267 192.355 32.96C192.355 30.6933 192.808 28.7067 193.715 27C194.648 25.2667 195.942 23.9333 197.595 23C199.275 22.0667 201.195 21.6 203.355 21.6C205.435 21.6 207.288 22.0533 208.915 22.96C210.542 23.8667 211.808 25.1467 212.715 26.8C213.622 28.4267 214.075 30.3067 214.075 32.44ZM209.315 31C209.288 29.32 208.688 27.9733 207.515 26.96C206.342 25.9467 204.888 25.44 203.155 25.44C201.582 25.44 200.235 25.9467 199.115 26.96C197.995 27.9467 197.328 29.2933 197.115 31H209.315ZM226.563 44.36C224.829 44.36 223.269 44.0533 221.883 43.44C220.523 42.8 219.443 41.9467 218.643 40.88C217.843 39.7867 217.416 38.5733 217.363 37.24H222.083C222.163 38.1733 222.603 38.96 223.403 39.6C224.229 40.2133 225.256 40.52 226.483 40.52C227.763 40.52 228.749 40.28 229.443 39.8C230.163 39.2933 230.523 38.6533 230.523 37.88C230.523 37.0533 230.123 36.44 229.323 36.04C228.549 35.64 227.309 35.2 225.603 34.72C223.949 34.2667 222.603 33.8267 221.563 33.4C220.523 32.9733 219.616 32.32 218.843 31.44C218.096 30.56 217.723 29.4 217.723 27.96C217.723 26.7867 218.069 25.72 218.763 24.76C219.456 23.7733 220.443 23 221.723 22.44C223.029 21.88 224.523 21.6 226.203 21.6C228.709 21.6 230.723 22.24 232.243 23.52C233.789 24.7733 234.616 26.4933 234.723 28.68H230.163C230.083 27.6933 229.683 26.9067 228.963 26.32C228.243 25.7333 227.269 25.44 226.043 25.44C224.843 25.44 223.923 25.6667 223.283 26.12C222.643 26.5733 222.323 27.1733 222.323 27.92C222.323 28.5067 222.536 29 222.963 29.4C223.389 29.8 223.909 30.12 224.523 30.36C225.136 30.5733 226.043 30.8533 227.243 31.2C228.843 31.6267 230.149 32.0667 231.163 32.52C232.203 32.9467 233.096 33.5867 233.843 34.44C234.589 35.2933 234.976 36.4267 235.003 37.84C235.003 39.0933 234.656 40.2133 233.963 41.2C233.269 42.1867 232.283 42.96 231.003 43.52C229.749 44.08 228.269 44.36 226.563 44.36Z" fill="white"/>
<defs>
<filter id="filter0_d_622_7" x="0" y="5" width="58" height="58" filterUnits="userSpaceOnUse" color-interpolation-filters="sRGB">
<feFlood flood-opacity="0" result="BackgroundImageFix"/>
<feColorMatrix in="SourceAlpha" type="matrix" values="0 0 0 0 0 0 0 0 0 0 0 0 0 0 0 0 0 0 127 0" result="hardAlpha"/>
<feOffset dy="4"/>
<feGaussianBlur stdDeviation="2"/>
<feComposite in2="hardAlpha" operator="out"/>
<feColorMatrix type="matrix" values="0 0 0 0 0 0 0 0 0 0 0 0 0 0 0 0 0 0 0.25 0"/>
<feBlend mode="normal" in2="BackgroundImageFix" result="effect1_dropShadow_622_7"/>
<feBlend mode="normal" in="SourceGraphic" in2="effect1_dropShadow_622_7" result="shape"/>
</filter>
<linearGradient id="paint0_linear_622_7" x1="29" y1="5" x2="29" y2="55" gradientUnits="userSpaceOnUse">
<stop stop-color="#221169"/>
<stop offset="0.561458" stop-color="#221169" stop-opacity="0.7305"/>
<stop offset="1" stop-color="#2D1A7A" stop-opacity="0.73"/>
</linearGradient>
</defs>
</svg>
