<svg width="25" height="45" viewBox="0 0 25 45" fill="none" xmlns="http://www.w3.org/2000/svg">
<path d="M24.2 30.1C24.2 31.7667 23.7833 33.3333 22.95 34.8C22.15 36.2667 20.95 37.5 19.35 38.5C17.7833 39.5 15.9167 40.1 13.75 40.3V44.35H10.5V40.3C7.36667 40 4.83333 39.0167 2.9 37.35C0.966667 35.6833 1.19209e-07 33.4833 1.19209e-07 30.75H6.1C6.2 32.05 6.61667 33.1333 7.35 34C8.08333 34.8333 9.13333 35.3667 10.5 35.6V24.6C8.26667 24.0333 6.45 23.4667 5.05 22.9C3.65 22.3 2.45 21.3667 1.45 20.1C0.483333 18.8333 1.19209e-07 17.1 1.19209e-07 14.9C1.19209e-07 12.1333 0.966667 9.85 2.9 8.05C4.83333 6.21667 7.36667 5.15 10.5 4.85V0.799998H13.75V4.85C16.6833 5.11666 19.0333 6.05 20.8 7.65C22.6 9.21667 23.6167 11.3833 23.85 14.15H17.75C17.65 13.1167 17.25 12.2 16.55 11.4C15.85 10.5667 14.9167 10 13.75 9.7V20.5C15.9833 21.0333 17.8 21.6 19.2 22.2C20.6 22.7667 21.7833 23.6833 22.75 24.95C23.7167 26.1833 24.2 27.9 24.2 30.1ZM5.8 14.6C5.8 15.9667 6.2 17.0333 7 17.8C7.83333 18.5667 9 19.1833 10.5 19.65V9.55C9.06667 9.71667 7.91667 10.2333 7.05 11.1C6.21667 11.9667 5.8 13.1333 5.8 14.6ZM13.75 35.6C15.2167 35.3667 16.3667 34.7833 17.2 33.85C18.0333 32.8833 18.45 31.7333 18.45 30.4C18.45 29.0667 18.0333 28.0333 17.2 27.3C16.4 26.5333 15.25 25.9167 13.75 25.45V35.6Z" fill="white"/>
</svg>
